<?xml version="1.0" encoding="UTF-8" standalone="no"?>
<!-- Created with Inkscape (http://www.inkscape.org/) -->

<svg
   width="49.715622mm"
   height="82.709335mm"
   viewBox="0 0 49.715622 82.709336"
   version="1.1"
   id="svg1"
   xml:space="preserve"
   inkscape:export-filename="readly-favicon.svg"
   inkscape:export-xdpi="96"
   inkscape:export-ydpi="96"
   xmlns:inkscape="http://www.inkscape.org/namespaces/inkscape"
   xmlns:sodipodi="http://sodipodi.sourceforge.net/DTD/sodipodi-0.dtd"
   xmlns="http://www.w3.org/2000/svg"
   xmlns:svg="http://www.w3.org/2000/svg"><sodipodi:namedview
     id="namedview1"
     pagecolor="#ffffff"
     bordercolor="#000000"
     borderopacity="0.25"
     inkscape:showpageshadow="2"
     inkscape:pageopacity="0.0"
     inkscape:pagecheckerboard="0"
     inkscape:deskcolor="#d1d1d1"
     inkscape:document-units="mm"
     inkscape:zoom="0.65412035"
     inkscape:cx="355.43918"
     inkscape:cy="448.69419"
     inkscape:window-width="1470"
     inkscape:window-height="832"
     inkscape:window-x="229"
     inkscape:window-y="1113"
     inkscape:window-maximized="1"
     inkscape:current-layer="layer1"><inkscape:page
       x="0"
       y="0"
       width="49.715622"
       height="82.709335"
       id="page2"
       margin="0"
       bleed="0" /></sodipodi:namedview><defs
     id="defs1" /><g
     inkscape:label="Layer 1"
     inkscape:groupmode="layer"
     id="layer1"
     transform="translate(-19.404962,-102.17547)"><path
       style="fill:#006d44;fill-opacity:1;stroke-width:1.56985;stroke-linejoin:round;stroke-miterlimit:17;paint-order:fill markers stroke"
       d="m 31.781488,161.31371 c 0.02493,-12.479 0.07151,-22.90197 0.103507,-23.16216 l 0.05817,-0.47307 0.718449,-0.33391 c 0.395147,-0.18365 3.754686,-1.51341 7.465642,-2.95502 15.723367,-6.10811 15.87174,-6.15661 18.786303,-6.14123 1.157102,0.006 1.742183,0.0503 2.337263,0.17641 3.544152,0.75124 5.87838,3.29714 6.764157,7.37753 0.222692,1.02584 0.311444,3.54883 0.167804,4.77029 -0.528486,4.49412 -2.539719,8.80365 -5.794919,12.41698 -1.357628,1.50699 -1.723295,1.94396 -1.859664,2.22231 l -0.132517,0.27048 1.316083,2.06678 c 0.723847,1.13673 2.62935,4.11209 4.234452,6.61191 1.605106,2.49982 2.988913,4.69306 3.075133,4.87386 0.09737,0.20418 0.125349,0.35928 0.07386,0.40936 -0.110725,0.10768 -7.582678,3.02779 -8.81457,3.44481 -1.192326,0.40364 -1.385792,0.45121 -1.512374,0.37191 -0.137046,-0.0859 -1.695011,-2.51419 -4.99137,-7.77986 -3.256513,-5.20201 -3.257671,-5.20371 -3.546753,-5.20371 -0.280196,0 -1.975574,0.59874 -5.494506,1.94045 l -2.844403,1.08452 -0.0024,7.02073 c -0.0013,3.8614 -0.04079,7.41683 -0.08785,7.90095 -0.105696,1.0872 -0.273021,1.60852 -0.635162,1.97893 -0.365458,0.3738 -0.693211,0.53479 -2.444517,1.20071 -5.615127,2.13514 -6.849077,2.59907 -6.913008,2.5991 -0.03975,1e-5 -0.05187,-10.21006 -0.02693,-22.68906 z m 13.235703,-7.57747 c 4.351028,-1.66993 6.534814,-2.56112 7.747421,-3.1617 2.852637,-1.41284 4.4827,-2.89373 5.187458,-4.71272 0.352126,-0.90885 0.462735,-1.62185 0.459129,-2.95957 -0.0074,-2.75803 -0.606076,-4.2923 -1.859807,-4.76654 -0.448328,-0.16959 -0.62661,-0.18595 -1.606764,-0.14742 -1.809105,0.0711 -3.681198,0.63899 -9.613649,2.91615 l -3.307447,1.26956 -0.0677,2.37064 c -0.08324,2.91511 -0.041,9.80814 0.06147,10.02938 0.111529,0.24081 0.398195,0.16075 2.999889,-0.83778 z"
       id="path11-7" /><path
       style="fill:#006d44;fill-opacity:1;stroke-width:1.56985;stroke-linejoin:round;stroke-miterlimit:17;paint-order:fill markers stroke"
       d="m 27.911755,184.75429 c -1.827543,-0.40221 -4.313573,-1.72133 -5.909306,-3.13555 -1.822788,-1.61545 -2.073228,-1.9692 -2.294521,-3.24102 -0.277723,-1.59612 -0.306943,-4.0552 -0.302588,-25.46493 l 0.0044,-21.43226 8.043568,-9.97884 c 13.035207,-16.17147 15.203531,-18.8484 15.484156,-19.11611 0.147142,-0.14036 0.322849,-0.23228 0.392755,-0.20546 0.20025,0.0769 0.232783,0.6033 0.251849,4.07561 0.0168,3.05881 0.0069,3.29445 -0.157583,3.7596 -0.477483,1.35014 -0.527762,1.40359 -10.39717,11.0529 -8.135609,7.95417 -9.502679,9.26837 -10.167831,9.77459 -0.416126,0.3167 -0.489705,0.34384 -0.687689,0.25363 -0.409994,-0.1868 -0.685091,-0.12324 -1.040094,0.24032 -1.02,1.04457 -0.237446,2.72206 2.061469,4.41899 1.327336,0.97976 3.759275,2.01659 5.492795,2.34181 l 0.328313,0.0616 v 8.9277 c 0,4.91024 0.02642,15.4235 0.05871,23.36282 l 0.05871,14.43511 -0.345354,-0.007 c -0.189946,-0.004 -0.583491,-0.0594 -0.874547,-0.12347 z"
       id="path12-6" /><path
       style="fill:#006d44;fill-opacity:1;stroke-width:1.56985;stroke-linejoin:round;stroke-miterlimit:17;paint-order:fill markers stroke"
       d="m 25.70679,133.03399 c -0.582841,-0.21258 -1.367078,-0.61301 -1.367078,-0.69802 0,-0.0939 0.734458,-0.78843 1.983309,-1.87552 0.581473,-0.50616 4.253213,-3.75808 8.159423,-7.22649 12.219765,-10.8502 17.558734,-15.55842 17.927589,-15.8096 0.838671,-0.57112 0.844095,-0.53378 0.792671,5.45747 l -0.02204,2.56896 -13.251841,8.85051 c -9.187095,6.13579 -13.333,8.85711 -13.516436,8.87202 -0.145528,0.0118 -0.463043,-0.0509 -0.705589,-0.13933 z"
       id="path13-2" /><path
       style="fill:#006d44;fill-opacity:1;stroke-width:1.56985;stroke-linejoin:round;stroke-miterlimit:17;paint-order:fill markers stroke"
       d="m 28.587587,135.04377 c -0.395962,-0.34441 -0.719931,-0.64002 -0.719931,-0.65692 0,-0.0503 25.921013,-15.57667 32.22624,-19.30308 1.449583,-0.85671 2.66011,-1.53316 2.690055,-1.50321 0.07807,0.0781 0.129831,10.30975 0.05707,11.28024 -0.07723,1.03015 -0.09726,1.06282 -0.538263,0.87802 -0.494731,-0.20731 -1.557459,-0.38143 -2.349828,-0.38502 -2.316959,-0.0105 -6.204604,1.04066 -12.353237,3.34005 -1.417577,0.53013 -5.75256,2.20183 -9.633299,3.71489 -7.677021,2.99319 -8.379491,3.26122 -8.546938,3.26122 -0.06157,0 -0.435908,-0.28178 -0.831869,-0.62619 z"
       id="path14-7" /></g></svg>
