<?xml version="1.0" encoding="UTF-8" standalone="no"?>
<!-- Created with Inkscape (http://www.inkscape.org/) -->

<svg
   width="171.19006mm"
   height="82.709335mm"
   viewBox="0 0 171.19006 82.709336"
   version="1.1"
   id="svg1"
   xml:space="preserve"
   inkscape:export-filename="readly-logo.svg"
   inkscape:export-xdpi="96"
   inkscape:export-ydpi="96"
   xmlns:inkscape="http://www.inkscape.org/namespaces/inkscape"
   xmlns:sodipodi="http://sodipodi.sourceforge.net/DTD/sodipodi-0.dtd"
   xmlns="http://www.w3.org/2000/svg"
   xmlns:svg="http://www.w3.org/2000/svg"><sodipodi:namedview
     id="namedview1"
     pagecolor="#ffffff"
     bordercolor="#000000"
     borderopacity="0.25"
     inkscape:showpageshadow="2"
     inkscape:pageopacity="0.0"
     inkscape:pagecheckerboard="0"
     inkscape:deskcolor="#d1d1d1"
     inkscape:document-units="mm"
     inkscape:zoom="0.65412035"
     inkscape:cx="355.43918"
     inkscape:cy="448.69419"
     inkscape:window-width="1470"
     inkscape:window-height="832"
     inkscape:window-x="229"
     inkscape:window-y="1113"
     inkscape:window-maximized="1"
     inkscape:current-layer="layer1"><inkscape:page
       x="0"
       y="0"
       width="171.19006"
       height="82.709335"
       id="page2"
       margin="0"
       bleed="0" /></sodipodi:namedview><defs
     id="defs1" /><g
     inkscape:label="Layer 1"
     inkscape:groupmode="layer"
     id="layer1"
     transform="translate(-19.404962,-102.17547)"><path
       style="fill:#000000;stroke-width:1.56985;stroke-linejoin:round;stroke-miterlimit:17;paint-order:fill markers stroke"
       d="m 157.43141,148.18082 v -17.33103 h 2.73415 2.73416 v 17.33103 17.33102 h -2.73416 -2.73415 z"
       id="path6-3" /><path
       style="fill:#000000;stroke-width:1.56985;stroke-linejoin:round;stroke-miterlimit:17;paint-order:fill markers stroke"
       d="m 136.66063,166.20786 c -5.93945,-0.85589 -10.46851,-7.39168 -9.91385,-14.30648 0.33781,-4.21137 2.31976,-7.92723 5.32105,-9.97619 3.00478,-2.05133 6.85715,-2.47381 10.13073,-1.11102 0.67865,0.28253 1.45547,0.7519 2.83884,1.7153 0.41269,0.28741 0.77979,0.49312 0.81577,0.45714 0.12401,-0.12401 0.18446,-2.40476 0.19253,-7.26385 l 0.008,-4.87297 h 2.69006 2.69006 v 17.41922 17.41923 h -2.51366 -2.51366 v -1.35022 c 0,-1.97419 -0.0815,-2.02222 -1.42332,-0.8393 -1.33743,1.17901 -2.61399,1.93005 -4.02398,2.36742 -1.25187,0.38833 -3.00701,0.52785 -4.29865,0.34172 z m 3.31049,-4.84087 c 2.33849,-0.26799 4.05038,-1.54939 5.1204,-3.83277 0.9562,-2.04046 1.20809,-5.15981 0.60622,-7.50713 -0.22876,-0.89218 -0.82194,-2.12857 -1.36717,-2.84963 -1.37255,-1.8152 -3.78918,-2.81431 -5.99858,-2.48001 -2.22622,0.33685 -3.9977,1.65378 -5.02781,3.73772 -0.27688,0.56013 -0.58448,1.35852 -0.71755,1.86241 -0.21468,0.81293 -0.2335,1.02702 -0.24033,2.73416 -0.007,1.64641 0.0147,1.93869 0.19107,2.63098 0.44735,1.75538 1.04714,2.8656 2.13085,3.94417 1.1048,1.09958 2.1305,1.58767 3.67992,1.75114 0.38162,0.0403 0.73355,0.0782 0.78205,0.0842 0.0485,0.006 0.42693,-0.0278 0.84093,-0.0753 z"
       id="path7-9" /><path
       style="fill:#000000;stroke-width:1.56985;stroke-linejoin:round;stroke-miterlimit:17;paint-order:fill markers stroke"
       d="m 170.2202,175.73512 c -1.65639,-0.21261 -3.06447,-1.06837 -3.68785,-2.2413 -0.20613,-0.38786 -0.23453,-0.54245 -0.23568,-1.28295 -0.001,-0.79369 0.0173,-0.87966 0.32373,-1.50012 0.17877,-0.362 0.46115,-0.81564 0.6275,-1.00808 l 0.30247,-0.3499 0.51908,0.31786 c 1.49478,0.91535 2.70044,1.20374 4.00116,0.95706 1.16182,-0.22033 1.94265,-0.81329 2.78437,-2.11447 0.76307,-1.17959 0.89119,-1.90278 0.57254,-3.23183 -0.20968,-0.87455 -0.50846,-1.66722 -3.48702,-9.2509 -4.62296,-11.77051 -6.00501,-15.36888 -5.93116,-15.44273 0.0273,-0.0273 1.26174,-0.0209 2.74317,0.0141 2.35159,0.0557 2.70056,0.0817 2.74902,0.20521 0.0305,0.0778 1.29801,3.47534 2.81663,7.55011 3.26535,8.76165 3.50619,9.38387 3.86613,9.9885 0.22456,0.37721 0.32004,0.46304 0.51513,0.46304 0.2021,0 0.27387,-0.0723 0.45987,-0.46304 0.12123,-0.25468 1.05426,-2.80472 2.07342,-5.66677 1.01915,-2.86204 2.35583,-6.573 2.9704,-8.24657 0.61457,-1.67356 1.15852,-3.16828 1.20879,-3.32158 0.062,-0.18905 0.16546,-0.29697 0.32158,-0.33544 0.30961,-0.0763 4.63881,-0.17181 4.80997,-0.10613 0.19688,0.0755 0.11163,0.31039 -5.5924,15.40537 -3.85434,10.20001 -4.74008,12.4113 -5.82914,14.55277 -1.43722,2.82607 -2.5955,3.91447 -4.96947,4.66963 -1.45866,0.46399 -2.67495,0.59951 -3.93224,0.43813 z"
       id="path8-8" /><path
       style="fill:#000000;stroke-width:1.56985;stroke-linejoin:round;stroke-miterlimit:17;paint-order:fill markers stroke"
       d="m 107.2023,166.13055 c -3.26823,-0.65963 -5.8152,-2.93184 -6.62532,-5.91063 -0.21634,-0.79544 -0.22208,-2.65384 -0.0106,-3.42449 0.71007,-2.58741 2.21629,-4.38178 4.36845,-5.20417 1.95257,-0.74613 4.14948,-1.00922 9.39132,-1.12468 l 2.71394,-0.0598 -0.0523,-0.31921 c -0.34923,-2.13249 -0.71259,-3.05739 -1.50428,-3.82902 -1.35582,-1.32145 -3.55032,-1.74239 -6.49397,-1.24564 -1.6628,0.28061 -3.14749,0.83246 -4.4983,1.67201 -0.43546,0.27064 -0.80393,0.47979 -0.81882,0.46478 -0.15416,-0.15534 -1.80617,-3.68831 -1.80617,-3.86266 0,-0.36451 0.37157,-0.63938 1.82559,-1.35049 1.48994,-0.72868 3.05899,-1.28351 4.39241,-1.55321 4.38895,-0.88772 8.77681,0.0366 11.38524,2.39844 1.16074,1.05099 2.27792,3.08051 2.5582,4.64737 0.18833,1.05279 0.28634,4.30245 0.34788,11.53392 l 0.0572,6.72515 h -2.52179 -2.5218 l -0.009,-1.16863 c -0.0106,-1.40815 -0.0525,-1.60042 -0.35614,-1.63624 -0.1755,-0.0207 -0.40203,0.12903 -1.01905,0.67358 -1.1221,0.99031 -1.55359,1.30482 -2.31432,1.68689 -1.8859,0.94715 -4.45182,1.2978 -6.48864,0.88671 z m 5.15962,-4.31776 c 0.36382,-0.10389 1.03854,-0.37433 1.49937,-0.60097 1.04992,-0.51636 2.12166,-1.52097 2.51018,-2.35296 0.35156,-0.75281 0.57518,-1.94762 0.57064,-3.04887 -0.005,-1.08852 -0.11924,-1.51 -0.43486,-1.59724 -0.53598,-0.14815 -5.60852,-0.0175 -7.27138,0.18731 -2.71392,0.33423 -4.32689,3.09282 -3.179,5.43691 0.51307,1.04772 1.46883,1.77767 2.75286,2.10245 0.7526,0.19037 2.68308,0.12155 3.55219,-0.12663 z"
       id="path9-6" /><path
       style="fill:#000000;stroke-width:1.56985;stroke-linejoin:round;stroke-miterlimit:17;paint-order:fill markers stroke"
       d="m 83.565075,166.25717 c -5.492769,-1.02058 -9.606209,-5.20154 -10.549953,-10.72312 -0.254781,-1.49066 -0.199494,-3.66511 0.133299,-5.2426 1.130922,-5.36074 4.555964,-8.95655 9.583404,-10.0612 1.054648,-0.23173 3.77544,-0.23064 4.843918,0.002 2.480289,0.53992 4.513694,1.65432 6.203038,3.39955 2.40527,2.48486 3.499663,5.59564 3.500873,9.95123 l 2.7e-4,1.08043 h -9.525453 -9.525449 v 0.65715 c 0,0.86984 0.130863,1.46105 0.489024,2.20931 0.614672,1.28414 1.612699,2.21649 3.171216,2.96251 2.792042,1.33648 6.171571,1.23612 8.66851,-0.25743 0.325789,-0.19487 0.905263,-0.63518 1.287719,-0.97846 0.38246,-0.34328 0.73966,-0.62363 0.79379,-0.62301 0.0541,5.3e-4 0.77134,0.72091 1.59382,1.60062 l 1.49541,1.59948 -0.84219,0.81 c -1.73837,1.67192 -3.962451,2.86887 -6.426261,3.45845 -1.189459,0.28464 -3.759663,0.36609 -4.895022,0.15514 z m 6.324094,-15.29799 2.266958,-1.1e-4 -0.04723,-0.46304 c -0.133829,-1.3121 -0.614757,-2.56827 -1.305785,-3.41069 -2.813513,-3.42986 -9.345703,-3.21145 -11.692774,0.39097 -0.511548,0.78516 -0.806413,1.68208 -0.860716,2.61814 -0.04364,0.7522 -0.04042,0.76798 0.165915,0.81502 0.45484,0.10369 1.330299,0.11794 5.193636,0.0845 2.20717,-0.0191 5.033169,-0.0348 6.279996,-0.0348 z"
       id="path10-5" /><path
       style="fill:#006d44;fill-opacity:1;stroke-width:1.56985;stroke-linejoin:round;stroke-miterlimit:17;paint-order:fill markers stroke"
       d="m 31.781488,161.31371 c 0.02493,-12.479 0.07151,-22.90197 0.103507,-23.16216 l 0.05817,-0.47307 0.718449,-0.33391 c 0.395147,-0.18365 3.754686,-1.51341 7.465642,-2.95502 15.723367,-6.10811 15.87174,-6.15661 18.786303,-6.14123 1.157102,0.006 1.742183,0.0503 2.337263,0.17641 3.544152,0.75124 5.87838,3.29714 6.764157,7.37753 0.222692,1.02584 0.311444,3.54883 0.167804,4.77029 -0.528486,4.49412 -2.539719,8.80365 -5.794919,12.41698 -1.357628,1.50699 -1.723295,1.94396 -1.859664,2.22231 l -0.132517,0.27048 1.316083,2.06678 c 0.723847,1.13673 2.62935,4.11209 4.234452,6.61191 1.605106,2.49982 2.988913,4.69306 3.075133,4.87386 0.09737,0.20418 0.125349,0.35928 0.07386,0.40936 -0.110725,0.10768 -7.582678,3.02779 -8.81457,3.44481 -1.192326,0.40364 -1.385792,0.45121 -1.512374,0.37191 -0.137046,-0.0859 -1.695011,-2.51419 -4.99137,-7.77986 -3.256513,-5.20201 -3.257671,-5.20371 -3.546753,-5.20371 -0.280196,0 -1.975574,0.59874 -5.494506,1.94045 l -2.844403,1.08452 -0.0024,7.02073 c -0.0013,3.8614 -0.04079,7.41683 -0.08785,7.90095 -0.105696,1.0872 -0.273021,1.60852 -0.635162,1.97893 -0.365458,0.3738 -0.693211,0.53479 -2.444517,1.20071 -5.615127,2.13514 -6.849077,2.59907 -6.913008,2.5991 -0.03975,1e-5 -0.05187,-10.21006 -0.02693,-22.68906 z m 13.235703,-7.57747 c 4.351028,-1.66993 6.534814,-2.56112 7.747421,-3.1617 2.852637,-1.41284 4.4827,-2.89373 5.187458,-4.71272 0.352126,-0.90885 0.462735,-1.62185 0.459129,-2.95957 -0.0074,-2.75803 -0.606076,-4.2923 -1.859807,-4.76654 -0.448328,-0.16959 -0.62661,-0.18595 -1.606764,-0.14742 -1.809105,0.0711 -3.681198,0.63899 -9.613649,2.91615 l -3.307447,1.26956 -0.0677,2.37064 c -0.08324,2.91511 -0.041,9.80814 0.06147,10.02938 0.111529,0.24081 0.398195,0.16075 2.999889,-0.83778 z"
       id="path11-7" /><path
       style="fill:#006d44;fill-opacity:1;stroke-width:1.56985;stroke-linejoin:round;stroke-miterlimit:17;paint-order:fill markers stroke"
       d="m 27.911755,184.75429 c -1.827543,-0.40221 -4.313573,-1.72133 -5.909306,-3.13555 -1.822788,-1.61545 -2.073228,-1.9692 -2.294521,-3.24102 -0.277723,-1.59612 -0.306943,-4.0552 -0.302588,-25.46493 l 0.0044,-21.43226 8.043568,-9.97884 c 13.035207,-16.17147 15.203531,-18.8484 15.484156,-19.11611 0.147142,-0.14036 0.322849,-0.23228 0.392755,-0.20546 0.20025,0.0769 0.232783,0.6033 0.251849,4.07561 0.0168,3.05881 0.0069,3.29445 -0.157583,3.7596 -0.477483,1.35014 -0.527762,1.40359 -10.39717,11.0529 -8.135609,7.95417 -9.502679,9.26837 -10.167831,9.77459 -0.416126,0.3167 -0.489705,0.34384 -0.687689,0.25363 -0.409994,-0.1868 -0.685091,-0.12324 -1.040094,0.24032 -1.02,1.04457 -0.237446,2.72206 2.061469,4.41899 1.327336,0.97976 3.759275,2.01659 5.492795,2.34181 l 0.328313,0.0616 v 8.9277 c 0,4.91024 0.02642,15.4235 0.05871,23.36282 l 0.05871,14.43511 -0.345354,-0.007 c -0.189946,-0.004 -0.583491,-0.0594 -0.874547,-0.12347 z"
       id="path12-6" /><path
       style="fill:#006d44;fill-opacity:1;stroke-width:1.56985;stroke-linejoin:round;stroke-miterlimit:17;paint-order:fill markers stroke"
       d="m 25.70679,133.03399 c -0.582841,-0.21258 -1.367078,-0.61301 -1.367078,-0.69802 0,-0.0939 0.734458,-0.78843 1.983309,-1.87552 0.581473,-0.50616 4.253213,-3.75808 8.159423,-7.22649 12.219765,-10.8502 17.558734,-15.55842 17.927589,-15.8096 0.838671,-0.57112 0.844095,-0.53378 0.792671,5.45747 l -0.02204,2.56896 -13.251841,8.85051 c -9.187095,6.13579 -13.333,8.85711 -13.516436,8.87202 -0.145528,0.0118 -0.463043,-0.0509 -0.705589,-0.13933 z"
       id="path13-2" /><path
       style="fill:#006d44;fill-opacity:1;stroke-width:1.56985;stroke-linejoin:round;stroke-miterlimit:17;paint-order:fill markers stroke"
       d="m 28.587587,135.04377 c -0.395962,-0.34441 -0.719931,-0.64002 -0.719931,-0.65692 0,-0.0503 25.921013,-15.57667 32.22624,-19.30308 1.449583,-0.85671 2.66011,-1.53316 2.690055,-1.50321 0.07807,0.0781 0.129831,10.30975 0.05707,11.28024 -0.07723,1.03015 -0.09726,1.06282 -0.538263,0.87802 -0.494731,-0.20731 -1.557459,-0.38143 -2.349828,-0.38502 -2.316959,-0.0105 -6.204604,1.04066 -12.353237,3.34005 -1.417577,0.53013 -5.75256,2.20183 -9.633299,3.71489 -7.677021,2.99319 -8.379491,3.26122 -8.546938,3.26122 -0.06157,0 -0.435908,-0.28178 -0.831869,-0.62619 z"
       id="path14-7" /></g></svg>
